<?xml version="1.0" encoding="UTF-8" standalone="no"?>
<svg width="440px" height="481px" viewBox="0 0 440 481" version="1.1" xmlns="http://www.w3.org/2000/svg" xmlns:xlink="http://www.w3.org/1999/xlink" xmlns:sketch="http://www.bohemiancoding.com/sketch/ns">
    <title>Slice 1</title>
    <description>Created with Sketch (http://www.bohemiancoding.com/sketch)</description>
    <defs></defs>
    <g id="Page 1" stroke="none" stroke-width="1" fill="none" fill-rule="evenodd">
        <path d="M0,393 L0,470 L439,470 L439,393 L0,393 Z M0,393" id="Rectangle 13" stroke="#4095BA" fill="#C7EEFF"></path>
        <text id="Ljubljanica" fill="#2841A4" font-family="Helvetica" font-size="12" font-weight="normal" x="209.546875" y="438.496094">
            <tspan>Ljubljanica</tspan>
        </text>
        <path d="M24,1 L55,1 L55,19.5 L439,19.5 L439,48.5 L55,48.5 L55,243.5 L439,243.5 L439,272.5 L55,272.5 L55,339 L439,339 L439,368 L55,368 L55,480 L24,480 L24,368 L0,368 L0,339 L24,339 L24,272.5 L0,272.5 L0,243.5 L24,243.5 L24,48.5 L0,48.5 L0,19.5 L24,19.5 Z M24,1" id="Rectangle 14" stroke="#979797" fill="#EEEEEE"></path>
        <path d="M54,380 L54,480 L74,480 L74,399.633152 L74,380 L54,380 Z M54,380" id="Rectangle 14" stroke="#979797" fill="#FFFFFF"></path>
        <path d="M5,380 L5,480 L25,480 L25,399.633152 L25,380 L5,380 Z M5,380" id="Rectangle 14" stroke="#979797" fill="#FFFFFF"></path>
        <text id="Resljeva cesta" fill="#000000" transform="translate(39.500000, 140.248047) rotate(-90.000000) translate(-39.500000, -140.248047) " font-family="Helvetica" font-size="12" font-weight="normal" x="-9.74804688" y="145.248047">
            <tspan>Resljeva cesta</tspan>
        </text>
        <text id="Zmajski most" fill="#000000" transform="translate(39.000000, 415.248047) rotate(-90.000000) translate(-39.000000, -415.248047) " font-family="Helvetica" font-size="12" font-weight="normal" x="-10.2480469" y="420.248047">
            <tspan>Zmajski most</tspan>
        </text>
        <text id="Komenskega ulica" fill="#000000" font-family="Helvetica" font-size="12" font-weight="normal" x="193" y="40">
            <tspan>Komenskega ulica</tspan>
        </text>
        <text id="Trubarjeva ulica" fill="#000000" font-family="Helvetica" font-size="12" font-weight="normal" x="201" y="262.5">
            <tspan>Trubarjeva ulica</tspan>
        </text>
        <text id="NEUROVITA" fill="#000000" font-family="Helvetica" font-size="12" font-weight="bold" x="325" y="123">
            <tspan>NEUROVITA</tspan>
        </text>
        <path d="M124,96 L124,199 L78,199 L78,96 L78,83 L78,69 L411,69 L440,69 L440,142 L411,142 L411,96 L323,96 L323,162 L393,162 L393,185 L323,185 L293,185 L292,185 L292,96 L260,96 L260,162 L229,162 L229,96 Z M124,96" id="Rectangle 20" stroke="#979797" fill="#D8D8D8"></path>
        <text id="Petkovškovo nabrežje" fill="#000000" font-family="Helvetica" font-size="12" font-weight="normal" x="181.414062" y="358.496094">
            <tspan>Petkovškovo nabrežje</tspan>
        </text>
        <path d="M291,199 L411,199 L411,154 L439,154 L439,226 L414,226 L411,226 L291,226 Z M291,199" id="Rectangle 25" stroke="#979797" fill="#D8D8D8"></path>
        <g id="location" transform="translate(354.000000, 145.500000) rotate(-270.000000) translate(-354.000000, -145.500000) translate(337.500000, 132.500000)" stroke="#3B0651" stroke-width="2">
            <path d="M12.3358779,25.7425743 C23.1960732,25.7425743 32,12.8712871 32,12.8712871 C32,12.8712871 31.0968681,11.5509138 29.5123041,9.75596026 C26.1495204,5.94668535 19.7177093,5.68434189e-14 12.3358779,5.68434189e-14 C1.47568255,5.68434189e-14 0.12213818,9.75596075 0.122137405,12.8712871 C0.122136756,15.9866135 1.47568255,25.7425743 12.3358779,25.7425743 Z M12.3358779,25.7425743" id="Oval 1" fill="#895696"></path>
            <path d="M12.3358779,20.5940594 C16.3831556,20.5940594 19.6641221,17.1364567 19.6641221,12.8712871 C19.6641221,8.60611756 16.3831556,5.14851485 12.3358779,5.14851485 C8.28860011,5.14851485 5.00763359,8.60611756 5.00763359,12.8712871 C5.00763359,17.1364567 8.28860011,20.5940594 12.3358779,20.5940594 Z M12.3358779,20.5940594" id="Oval 2"></path>
        </g>
        <path d="M142,147.003906 L207,147.003906 L207,180.003906 L260,180.003906 L260,227.003906 L207,227.003906 L142,227.003906 Z M142,147.003906" id="Rectangle 20" stroke="#979797" fill="#D8D8D8"></path>
        <path d="M85,291 L85,323 L168,323 L168,291 L85,291 Z M85,291" id="Rectangle 29" stroke="#979797" fill="#D8D8D8"></path>
        <path d="M181,291 L181,323 L440,323 L440,291 L181,291 Z M181,291" id="Rectangle 29" stroke="#979797" fill="#D8D8D8"></path>
        <path d="M0,0.5 L0,480.5 L440,480.5 L440,0.5 L0,0.5 Z M0,0.5" id="Rectangle 30" stroke="#979797" stroke-width="2"></path>
    </g>
</svg>